<?xml version="1.0" encoding="utf-8"?>
<!-- Generator: Adobe Illustrator 23.0.3, SVG Export Plug-In . SVG Version: 6.00 Build 0)  -->
<svg version="1.1" id="Layer_1" xmlns="http://www.w3.org/2000/svg" xmlns:xlink="http://www.w3.org/1999/xlink" x="0px" y="0px"
	 viewBox="0 0 2000 2000" style="enable-background:new 0 0 2000 2000;" xml:space="preserve">
<style type="text/css">
	.st0{fill:#F3B773;}
	.st1{fill:#2C344F;}
	.st2{fill:#FFFFFF;}
	.st3{display:none;}
	.st4{display:inline;}
	.st5{display:none;fill:#FFFFFF;}
</style>
<rect width="2000" height="2000"/>
<g>
	<g>
		<g>
			<g>
				<g>
					<path class="st2" d="M1327.69,679.91l-78.82,78.82v-15.18l71.23-71.23C1324.98,667.41,1332.57,675.03,1327.69,679.91z"/>
					<path class="st2" d="M1399.93,592.46l-34.22,34.22c-4.89,4.89,2.7,12.51,7.6,7.6l34.22-34.22
						C1412.43,595.17,1404.83,587.56,1399.93,592.46z"/>
				</g>
				<g>
					<path class="st2" d="M920.42,682.27H909.3l-33.05-123.31c-1.79-6.7,8.6-9.46,10.38-2.79L920.42,682.27z"/>
					<path class="st2" d="M847.03,449.88l12.53,46.75c1.79,6.68,12.18,3.91,10.39-2.78l-12.53-46.75
						C855.63,440.41,845.23,443.18,847.03,449.88z"/>
				</g>
				<g>
					<path class="st2" d="M751.12,927.73v11.17l-194.95-52.25c-6.7-1.82-3.9-12.2,2.77-10.41L751.12,927.73z"/>
					<path class="st2" d="M447.1,857.42l46.75,12.53c6.68,1.79,9.48-8.59,2.78-10.39l-46.75-12.53
						C443.19,845.24,440.4,855.62,447.1,857.42z"/>
				</g>
				<g>
					<path class="st2" d="M751.12,1241.27v15.21l-71.2,71.2c-4.91,4.91-12.5-2.71-7.62-7.59L751.12,1241.27z"/>
					<path class="st2" d="M600.07,1407.54l34.22-34.22c4.89-4.89-2.7-12.51-7.6-7.6l-34.22,34.22
						C587.57,1404.83,595.17,1412.44,600.07,1407.54z"/>
				</g>
				<g>
					<path class="st2" d="M1113.36,1443.84l-26.65-99.51h11.12l25.92,96.71C1125.53,1447.74,1115.15,1450.51,1113.36,1443.84z"/>
					<path class="st2" d="M1152.97,1550.12l-12.53-46.75c-1.79-6.68-12.18-3.91-10.39,2.78l12.53,46.75
						C1144.37,1559.59,1154.77,1556.82,1152.97,1550.12z"/>
				</g>
				<g>
					<path class="st2" d="M1441.05,1123.74l-192.18-51.49v-11.14l194.97,52.25C1450.51,1115.14,1447.72,1125.53,1441.05,1123.74z"/>
					<path class="st2" d="M1552.9,1142.58l-46.75-12.53c-6.68-1.79-9.48,8.59-2.78,10.39l46.75,12.53
						C1556.81,1154.76,1559.6,1144.38,1552.9,1142.58z"/>
				</g>
			</g>
			<g>
				<g>
					<path class="st2" d="M994.62,584.97v88.28c0,6.92,10.75,6.93,10.75,0v-88.28C1005.38,578.05,994.62,578.04,994.62,584.97z"/>
					<path class="st2" d="M994.62,451.7v34.06c0,6.92,10.75,6.93,10.75,0V451.7C1005.38,444.78,994.62,444.77,994.62,451.7z"/>
				</g>
				<g>
					<path class="st2" d="M751.12,850.11v12.42l-41.84-24.16c-5.99-3.47-0.6-12.77,5.4-9.3L751.12,850.11z"/>
					<path class="st2" d="M637.89,797.14l29.49,17.03c5.99,3.46,11.38-5.85,5.38-9.31l-29.49-17.03
						C637.27,784.37,631.88,793.68,637.89,797.14z"/>
					<path class="st2" d="M522.47,730.51l29.49,17.03c5.99,3.46,11.38-5.85,5.38-9.31l-29.49-17.03
						C521.86,717.73,516.47,727.04,522.47,730.51z"/>
				</g>
				<g>
					<path class="st2" d="M751.12,1137.48v12.42l-36.44,21.04c-6.02,3.47-11.39-5.86-5.4-9.3L751.12,1137.48z"/>
					<path class="st2" d="M643.26,1212.17l29.49-17.03c5.99-3.46,0.63-12.78-5.38-9.31l-29.49,17.03
						C631.89,1206.32,637.26,1215.64,643.26,1212.17z"/>
					<path class="st2" d="M527.85,1278.81l29.49-17.03c5.99-3.46,0.63-12.78-5.38-9.31l-29.49,17.03
						C516.48,1272.95,521.85,1282.27,527.85,1278.81z"/>
				</g>
				<g>
					<path class="st2" d="M1005.38,1415.03v-34.06c0-6.92-10.75-6.93-10.75,0v34.06C994.62,1421.95,1005.38,1421.96,1005.38,1415.03
						z"/>
					<path class="st2" d="M1005.38,1548.3v-34.06c0-6.92-10.75-6.93-10.75,0v34.06C994.62,1555.22,1005.38,1555.23,1005.38,1548.3z"
						/>
				</g>
				<g>
					<path class="st2" d="M1285.34,1170.94l-36.47-21.04v-12.42l41.84,24.16C1296.73,1165.11,1291.33,1174.41,1285.34,1170.94z"/>
					<path class="st2" d="M1362.11,1202.86l-29.49-17.03c-5.99-3.46-11.38,5.85-5.38,9.31l29.49,17.03
						C1362.73,1215.63,1368.12,1206.32,1362.11,1202.86z"/>
					<path class="st2" d="M1477.53,1269.49l-29.49-17.03c-5.99-3.46-11.38,5.85-5.38,9.31l29.49,17.03
						C1478.14,1282.27,1483.53,1272.96,1477.53,1269.49z"/>
				</g>
				<g>
					<path class="st2" d="M1290.71,838.37l-41.84,24.16v-12.42l36.47-21.04C1291.33,825.6,1296.7,834.9,1290.71,838.37z"/>
					<path class="st2" d="M1356.74,787.83l-29.49,17.03c-5.99,3.46-0.63,12.78,5.38,9.31l29.49-17.03
						C1368.11,793.68,1362.74,784.36,1356.74,787.83z"/>
					<path class="st2" d="M1472.15,721.19l-29.49,17.03c-5.99,3.46-0.63,12.78,5.38,9.31l29.49-17.03
						C1483.52,727.05,1478.15,717.73,1472.15,721.19z"/>
				</g>
			</g>
			<g>
				<g>
					<path class="st2" d="M1281.16,1005.38h-32.29v-10.76h32.29C1288.1,994.62,1288.08,1005.38,1281.16,1005.38z"/>
					<path class="st2" d="M1374.37,994.62h-57.36c-6.92,0-6.93,10.75,0,10.75h57.36C1381.29,1005.38,1381.3,994.62,1374.37,994.62z"
						/>
					<path class="st2" d="M1567.95,994.62h-103.96c-6.92,0-6.93,10.75,0,10.75h103.96
						C1574.87,1005.38,1574.88,994.62,1567.95,994.62z"/>
				</g>
				<g>
					<path class="st2" d="M1279.32,505.45l-51.98,90.03c-3.46,5.99,5.85,11.38,9.31,5.38l51.98-90.03
						C1292.09,504.84,1282.78,499.45,1279.32,505.45z"/>
				</g>
				<g>
					<path class="st2" d="M711.37,510.83l51.98,90.03c3.46,5.99,12.78,0.63,9.31-5.38l-51.98-90.03
						C717.22,499.46,707.9,504.83,711.37,510.83z"/>
				</g>
				<g>
					<path class="st2" d="M751.12,994.62v10.76h-32.29c-6.91,0-6.91-10.76,0-10.76H751.12z"/>
					<path class="st2" d="M625.63,1005.38h57.36c6.92,0,6.93-10.75,0-10.75h-57.36C618.71,994.62,618.7,1005.38,625.63,1005.38z"/>
					<path class="st2" d="M432.05,1005.38h103.96c6.92,0,6.93-10.75,0-10.75H432.05C425.13,994.62,425.12,1005.38,432.05,1005.38z"
						/>
				</g>
				<g>
					<path class="st2" d="M720.68,1494.55l51.98-90.03c3.46-5.99-5.85-11.38-9.31-5.38l-51.98,90.03
						C707.91,1495.16,717.22,1500.55,720.68,1494.55z"/>
				</g>
				<g>
					<path class="st2" d="M1288.63,1489.17l-51.98-90.03c-3.46-5.99-12.78-0.63-9.31,5.38l51.98,90.03
						C1282.78,1500.54,1292.1,1495.17,1288.63,1489.17z"/>
				</g>
			</g>
			<g>
				<g>
					<path class="st2" d="M751.12,743.5v15.24l-48.4-48.4c-4.91-4.91,2.71-12.5,7.62-7.62L751.12,743.5z"/>
					<path class="st2" d="M572.18,579.79l67.17,67.17c4.89,4.89,12.51-2.7,7.6-7.6l-67.17-67.17
						C574.9,567.29,567.28,574.89,572.18,579.79z"/>
				</g>
				<g>
					<path class="st2" d="M751.12,1061.13v11.14l-150.62,40.34c-6.7,1.79-9.46-8.59-2.79-10.38L751.12,1061.13z"/>
					<path class="st2" d="M422.18,1160.39l91.76-24.59c6.68-1.79,3.91-12.18-2.78-10.39l-91.76,24.59
						C412.71,1151.8,415.48,1162.19,422.18,1160.39z"/>
				</g>
				<g>
					<path class="st2" d="M913.31,1344.33l-15.54,57.94c-1.79,6.7-12.17,3.9-10.38-2.77l14.78-55.18H913.31z"/>
					<path class="st2" d="M849.99,1580.61l24.59-91.76c1.79-6.68-8.59-9.48-10.39-2.78l-24.59,91.76
						C837.82,1584.51,848.2,1587.3,849.99,1580.61z"/>
				</g>
				<g>
					<path class="st2" d="M1289.68,1297.26l-40.81-40.81v-15.18l48.4,48.4C1302.18,1294.58,1294.56,1302.17,1289.68,1297.26z"/>
					<path class="st2" d="M1427.82,1420.21l-67.17-67.17c-4.89-4.89-12.51,2.7-7.6,7.6l67.17,67.17
						C1425.1,1432.71,1432.72,1425.11,1427.82,1420.21z"/>
				</g>
				<g>
					<path class="st2" d="M1402.28,897.77l-153.41,41.1v-11.14l150.62-40.34C1406.18,885.6,1408.98,895.98,1402.28,897.77z"/>
					<path class="st2" d="M1577.82,839.61l-91.76,24.59c-6.68,1.79-3.91,12.18,2.78,10.39l91.76-24.59
						C1587.29,848.2,1584.52,837.81,1577.82,839.61z"/>
				</g>
				<g>
					<path class="st2" d="M1112.6,600.5l-21.91,81.77h-11.12l22.64-84.54C1104.03,591.04,1114.41,593.83,1112.6,600.5z"/>
					<path class="st2" d="M1150.01,419.39l-24.59,91.76c-1.79,6.68,8.59,9.48,10.39,2.78l24.59-91.76
						C1162.18,415.49,1151.8,412.7,1150.01,419.39z"/>
				</g>
			</g>
		</g>
		<g>
			<path class="st2" d="M1000.05,940.3c26.26,0,49.95-10.62,67.17-27.82c17.2-17.22,27.82-40.91,27.82-67.17
				c0-26.26-10.62-49.95-27.82-67.17c-17.22-17.2-40.91-27.82-67.17-27.82c-26.26,0-49.95,10.62-67.17,27.82
				c-17.2,17.22-27.82,40.91-27.82,67.17c0,26.26,10.62,49.95,27.82,67.17C950.1,929.68,973.79,940.29,1000.05,940.3z
				 M1000.05,774.43c39.14,0,70.87,31.73,70.87,70.87c0,39.14-31.73,70.87-70.87,70.87c-39.14,0-70.87-31.73-70.87-70.87
				C929.18,806.16,960.91,774.43,1000.05,774.43z"/>
			
				<ellipse transform="matrix(0.7071 -0.7071 0.7071 0.7071 -304.8117 954.7287)" class="st2" cx="1000.05" cy="845.3" rx="26.39" ry="26.39"/>
			
				<ellipse transform="matrix(0.7071 -0.7071 0.7071 0.7071 -514.7424 1041.6849)" class="st2" cx="1000.05" cy="1142.19" rx="32.92" ry="32.92"/>
			<path class="st2" d="M1211.65,695.83H788.35c-13.08,0-23.68,10.6-23.68,23.68v587.59c0,13.08,10.6,23.68,23.68,23.68h423.29
				c13.08,0,23.68-10.6,23.68-23.68V719.51C1235.32,706.43,1224.72,695.83,1211.65,695.83z M919.46,764.72
				c20.59-20.61,49.15-33.39,80.59-33.38c31.44,0,59.99,12.77,80.59,33.38c20.61,20.59,33.39,49.15,33.38,80.59
				c0,31.44-12.77,59.99-33.38,80.59c-20.59,20.61-49.15,33.39-80.59,33.38c-31.44,0-59.99-12.77-80.59-33.38
				c-20.61-20.59-33.39-49.15-33.38-80.59C886.08,813.86,898.85,785.31,919.46,764.72z M1100.6,1242.74
				c-25.69,25.71-61.32,41.65-100.55,41.65c-39.23,0.01-74.85-15.93-100.54-41.65c-25.71-25.69-41.65-61.32-41.65-100.55
				c-0.01-39.23,15.93-74.85,41.65-100.54c25.69-25.71,61.32-41.65,100.54-41.65c39.23-0.01,74.85,15.93,100.55,41.65
				c25.71,25.69,41.65,61.32,41.65,100.54C1142.25,1181.42,1126.31,1217.04,1100.6,1242.74z"/>
			<path class="st2" d="M1000.05,1023.68c-32.76,0.01-62.32,13.25-83.8,34.71c-21.47,21.48-34.71,51.04-34.71,83.8
				c0.01,32.76,13.25,62.32,34.71,83.8c21.48,21.47,51.04,34.71,83.8,34.71c32.76-0.01,62.32-13.25,83.8-34.71
				c21.47-21.48,34.71-51.04,34.71-83.8c-0.01-32.76-13.25-62.32-34.71-83.8C1062.37,1036.93,1032.82,1023.68,1000.05,1023.68z
				 M1000.05,1230.61c-48.83,0-88.42-39.59-88.42-88.42s39.59-88.42,88.42-88.42c48.83,0,88.42,39.59,88.42,88.42
				S1048.89,1230.61,1000.05,1230.61z"/>
		</g>
	</g>
</g>
</svg>
