<?xml version="1.0" encoding="utf-8"?>
<!-- Generator: Adobe Illustrator 23.0.3, SVG Export Plug-In . SVG Version: 6.00 Build 0)  -->
<svg version="1.1" id="Layer_1" xmlns="http://www.w3.org/2000/svg" xmlns:xlink="http://www.w3.org/1999/xlink" x="0px" y="0px"
	 viewBox="0 0 2000 2000" style="enable-background:new 0 0 2000 2000;" xml:space="preserve">
<style type="text/css">
	.st0{fill:#F3B773;}
	.st1{fill:#2C344F;}
	.st2{fill:#FFFFFF;}
	.st3{display:none;}
	.st4{display:inline;}
	.st5{display:none;fill:#FFFFFF;}
</style>
<g>
	<g>
		<path class="st0" d="M548.97,1213.22l-8.29,16.34l-1.42-0.81c0.03-0.34,0.05-0.61,0.05-0.81c0-1.15-0.98-2.39-2.95-3.71
			c-6.03-4.2-13.12-6.31-21.26-6.31c-3.59,0-6.76,0.44-9.51,1.32c-2,0.68-3.62,1.69-4.86,3.05c-1.24,1.35-1.86,2.83-1.86,4.42
			c0,2.61,1.58,4.39,4.73,5.33c1.63,0.47,5.12,0.98,10.48,1.52l7.98,0.81c4.75,0.51,8.59,1.2,11.52,2.08
			c2.93,0.88,5.53,2.12,7.81,3.71c2.31,1.66,4.13,3.84,5.47,6.55c1.34,2.71,2.01,5.61,2.01,8.69c0,4.88-1.58,9.21-4.73,13.01
			c-2.85,3.46-7.27,6.01-13.27,7.67c-4.48,1.25-9.27,1.88-14.39,1.88c-9.19,0-18.26-2.2-27.21-6.61c-1.9-0.88-3.03-1.32-3.41-1.32
			c-0.44,0-1.14,0.37-2.08,1.12l-1.47-0.76l7.53-17.04l1.47,0.71c0,0.3,0,0.53,0,0.66c0,1.53,0.73,2.93,2.19,4.22
			c2.2,1.97,5.61,3.66,10.22,5.08c4.61,1.42,8.98,2.14,13.12,2.14c4.51,0,8.36-0.76,11.54-2.28c1.76-0.85,3.17-1.97,4.22-3.38
			c1.05-1.4,1.58-2.87,1.58-4.39c0-2.3-1.24-3.94-3.71-4.92c-1.73-0.68-5.22-1.3-10.48-1.88l-7.83-0.81
			c-5.26-0.54-8.97-1.06-11.14-1.55c-2.17-0.49-4.34-1.28-6.51-2.37c-3.09-1.53-5.51-3.82-7.27-6.87c-1.59-2.75-2.39-5.9-2.39-9.47
			c0-5.87,2.02-10.72,6.05-14.55c5.29-5.06,13.22-7.58,23.8-7.58c4.44,0,8.58,0.45,12.41,1.35c3.83,0.9,8.61,2.56,14.34,4.98
			c1.97,0.78,3.17,1.18,3.61,1.18c0.71,0,1.54-0.39,2.49-1.18L548.97,1213.22z"/>
		<path class="st0" d="M661.27,1212.68v38.9c0,7.36-1.36,12.87-4.07,16.53c-4.88,6.58-14.97,9.87-30.26,9.87
			c-11.05,0-19.51-1.78-25.38-5.34c-3.42-2.07-5.8-4.88-7.12-8.44c-1.29-3.53-1.93-7.73-1.93-12.61v-38.9
			c0-1.05-0.24-1.85-0.71-2.39c-0.47-0.54-1.32-0.98-2.54-1.32v-1.63h21.66v1.63c-1.2,0.31-2.04,0.74-2.53,1.3
			c-0.48,0.56-0.73,1.37-0.73,2.42v34.63c0,4,0.22,6.96,0.66,8.87c0.44,1.92,1.27,3.52,2.49,4.81c3.25,3.46,8.81,5.19,16.68,5.19
			c7.9,0,13.48-1.73,16.73-5.19c1.19-1.29,2-2.89,2.44-4.81c0.44-1.91,0.66-4.87,0.66-8.87v-34.63c0-1.05-0.24-1.85-0.71-2.39
			c-0.47-0.54-1.32-0.98-2.54-1.32v-1.63h20.44v1.63c-1.22,0.34-2.07,0.78-2.54,1.32C661.51,1210.83,661.27,1211.63,661.27,1212.68z
			"/>
		<path class="st0" d="M725.27,1248.58v22.88c0,1.02,0.25,1.81,0.74,2.36c0.49,0.56,1.33,0.99,2.52,1.3v1.63h-21.66v-1.63
			c1.22-0.34,2.07-0.78,2.54-1.32c0.47-0.54,0.71-1.32,0.71-2.34v-58.79c0-1.05-0.24-1.85-0.71-2.39c-0.47-0.54-1.32-0.98-2.54-1.32
			v-1.63h43.33c5.05,0,9.06,0.34,12.03,1.02c2.97,0.68,5.59,1.85,7.86,3.51c2.34,1.73,4.17,4,5.49,6.81c1.32,2.92,1.98,6,1.98,9.26
			c0,4.68-1.25,8.78-3.76,12.31c-2.17,3.02-5.04,5.16-8.62,6.43c-3.58,1.27-8.57,1.91-14.98,1.91H725.27z M725.27,1237.14h23.14
			c4.61,0,7.85-0.49,9.71-1.47c1.19-0.64,2.14-1.67,2.87-3.08c0.73-1.41,1.09-2.96,1.09-4.65c0-1.66-0.36-3.2-1.09-4.6
			c-0.73-1.41-1.69-2.43-2.87-3.08c-1.83-0.98-5.07-1.47-9.71-1.47h-23.14V1237.14z"/>
		<path class="st0" d="M836.2,1246.29v19.02h44.65c1.02,0,1.8-0.24,2.34-0.71c0.54-0.47,0.98-1.32,1.32-2.54h1.63v17.95h-1.63
			c-0.34-1.22-0.78-2.07-1.32-2.54c-0.54-0.47-1.32-0.71-2.34-0.71h-63.06v-1.63c1.22-0.34,2.07-0.78,2.54-1.32
			c0.47-0.54,0.71-1.34,0.71-2.39v-58.73c0-1.05-0.24-1.85-0.71-2.39c-0.47-0.54-1.32-0.98-2.54-1.32v-1.63h61.84
			c1.02,0,1.8-0.24,2.34-0.73c0.54-0.48,0.98-1.33,1.32-2.53h1.63v17.95h-1.63c-0.34-1.21-0.78-2.05-1.32-2.53
			c-0.54-0.48-1.32-0.72-2.34-0.72H836.2v16.48h28.17c1.02,0,1.8-0.24,2.34-0.71c0.54-0.47,0.98-1.32,1.32-2.54h1.63v17.54h-1.63
			c-0.34-1.19-0.78-2.03-1.32-2.52c-0.54-0.49-1.32-0.74-2.34-0.74H836.2z"/>
		<path class="st0" d="M946.57,1248.43v23.04c0,1.02,0.25,1.81,0.74,2.36c0.49,0.56,1.33,0.99,2.52,1.3v1.63h-21.66v-1.63
			c1.22-0.34,2.07-0.78,2.54-1.32c0.47-0.54,0.71-1.32,0.71-2.34v-58.79c0-1.05-0.24-1.85-0.71-2.39c-0.47-0.54-1.32-0.98-2.54-1.32
			v-1.63h43.43c5.29,0,9.48,0.3,12.59,0.92c3.1,0.61,5.8,1.68,8.11,3.2c2.68,1.76,4.68,4.15,6,7.17c1.25,2.92,1.88,6.03,1.88,9.36
			c0,11.32-6.29,17.95-18.87,19.88l13.48,19.17c2.37,3.36,4.11,5.52,5.21,6.48c1.1,0.97,2.45,1.5,4.04,1.6v1.63h-25.08v-1.63
			c1.73-0.27,2.59-0.88,2.59-1.83c0-0.61-0.8-2.09-2.39-4.42l-14.06-20.44H946.57z M946.57,1236.98h23.39c3.46,0,5.9-0.1,7.32-0.3
			c1.42-0.2,2.73-0.63,3.92-1.27c2.58-1.39,3.86-3.9,3.86-7.53c0-3.63-1.29-6.14-3.86-7.53c-1.22-0.68-2.52-1.11-3.89-1.3
			c-1.37-0.19-3.82-0.28-7.35-0.28h-23.39V1236.98z"/>
		<path class="st0" d="M1119.31,1265.31h42.67c1.05,0,1.85-0.24,2.39-0.71c0.54-0.47,0.98-1.32,1.32-2.54h1.63v17.95h-1.63
			c-0.34-1.22-0.78-2.07-1.32-2.54c-0.54-0.47-1.34-0.71-2.39-0.71h-61.07v-1.63c1.22-0.34,2.07-0.78,2.54-1.32
			c0.47-0.54,0.71-1.34,0.71-2.39v-58.73c0-1.05-0.24-1.85-0.71-2.39c-0.47-0.54-1.32-0.98-2.54-1.32v-1.63h21.66v1.63
			c-1.22,0.31-2.07,0.74-2.54,1.3c-0.48,0.56-0.71,1.37-0.71,2.42V1265.31z"/>
		<path class="st0" d="M1242.87,1206.12c12.11,0,21.71,3.27,28.8,9.81c7.5,6.85,11.25,15.7,11.25,26.55c0,6.64-1.8,12.85-5.39,18.61
			c-7.02,11.26-18.54,16.88-34.55,16.88c-12.01,0-21.56-3.27-28.65-9.81c-3.8-3.49-6.68-7.68-8.65-12.56
			c-1.73-4.3-2.59-8.83-2.59-13.58c0-6.95,1.78-13.31,5.34-19.07C1215.24,1211.93,1226.72,1206.32,1242.87,1206.12z
			 M1242.92,1217.91c-6.62,0-12.13,1.96-16.54,5.89c-5.23,4.64-7.84,10.72-7.84,18.24c0,7.52,2.61,13.6,7.84,18.24
			c4.41,3.93,9.96,5.89,16.65,5.89s12.22-1.96,16.6-5.89c2.61-2.34,4.61-5.2,6.01-8.59c1.22-3.01,1.83-6.13,1.83-9.35
			c0-7.86-2.61-14.04-7.84-18.54C1255.17,1219.95,1249.61,1217.98,1242.92,1217.91z"/>
		<path class="st0" d="M1395.68,1212.68v38.9c0,7.36-1.36,12.87-4.07,16.53c-4.88,6.58-14.97,9.87-30.26,9.87
			c-11.05,0-19.51-1.78-25.38-5.34c-3.42-2.07-5.8-4.88-7.12-8.44c-1.29-3.53-1.93-7.73-1.93-12.61v-38.9
			c0-1.05-0.24-1.85-0.71-2.39c-0.47-0.54-1.32-0.98-2.54-1.32v-1.63h21.66v1.63c-1.2,0.31-2.04,0.74-2.53,1.3
			c-0.48,0.56-0.73,1.37-0.73,2.42v34.63c0,4,0.22,6.96,0.66,8.87c0.44,1.92,1.27,3.52,2.49,4.81c3.25,3.46,8.81,5.19,16.68,5.19
			c7.9,0,13.48-1.73,16.73-5.19c1.19-1.29,2-2.89,2.44-4.81c0.44-1.91,0.66-4.87,0.66-8.87v-34.63c0-1.05-0.24-1.85-0.71-2.39
			c-0.47-0.54-1.32-0.98-2.54-1.32v-1.63h20.44v1.63c-1.22,0.34-2.07,0.78-2.54,1.32
			C1395.92,1210.83,1395.68,1211.63,1395.68,1212.68z"/>
		<path class="st0" d="M1444.52,1271.41v-58.73c0-1.05-0.24-1.85-0.71-2.39c-0.47-0.54-1.32-0.98-2.54-1.32v-1.63h38.72
			c8.48,0,14.99,0.97,19.54,2.9c6.51,2.81,11.33,7.46,14.45,13.93c2.48,5.08,3.71,11.04,3.71,17.85c0,11.97-3.68,21.09-11.04,27.36
			c-3.09,2.64-6.7,4.53-10.84,5.67c-4.14,1.14-9.41,1.7-15.83,1.7h-38.72v-1.63c1.22-0.34,2.07-0.78,2.54-1.32
			C1444.28,1273.26,1444.52,1272.46,1444.52,1271.41z M1459.67,1265.31h19.04c6.08,0,10.64-0.83,13.7-2.49
			c6.55-3.56,9.83-10.49,9.83-20.8c0-7.46-1.77-13.17-5.29-17.14c-1.97-2.2-4.35-3.77-7.13-4.7c-2.78-0.93-6.48-1.4-11.1-1.4h-19.04
			V1265.31z"/>
	</g>
	<g>
		<g>
			<g>
				<g>
					<path class="st0" d="M1120.86,867.49l-29.07,29.07v-5.6l26.27-26.27C1119.86,862.88,1122.66,865.69,1120.86,867.49z"/>
					<path class="st0" d="M1147.5,835.24l-12.62,12.62c-1.8,1.8,1,4.61,2.8,2.8l12.62-12.62
						C1152.11,836.24,1149.31,833.43,1147.5,835.24z"/>
				</g>
				<g>
					<path class="st0" d="M970.65,868.36h-4.1l-12.19-45.48c-0.66-2.47,3.17-3.49,3.83-1.03L970.65,868.36z"/>
					<path class="st0" d="M943.58,782.65l4.62,17.24c0.66,2.47,4.49,1.44,3.83-1.03l-4.62-17.24
						C946.75,779.16,942.92,780.18,943.58,782.65z"/>
				</g>
				<g>
					<path class="st0" d="M908.21,958.89v4.12l-71.9-19.27c-2.47-0.67-1.44-4.5,1.02-3.84L908.21,958.89z"/>
					<path class="st0" d="M796.08,932.96l17.24,4.62c2.47,0.66,3.5-3.17,1.03-3.83l-17.24-4.62
						C794.64,928.47,793.61,932.3,796.08,932.96z"/>
				</g>
				<g>
					<path class="st0" d="M908.21,1074.53v5.61l-26.26,26.26c-1.81,1.81-4.61-1-2.81-2.8L908.21,1074.53z"/>
					<path class="st0" d="M852.5,1135.86l12.62-12.62c1.8-1.8-1-4.61-2.8-2.8l-12.62,12.62
						C847.89,1134.86,850.69,1137.66,852.5,1135.86z"/>
				</g>
				<g>
					<path class="st0" d="M1041.81,1149.24l-9.83-36.7h4.1l9.56,35.67C1046.3,1150.68,1042.47,1151.7,1041.81,1149.24z"/>
					<path class="st0" d="M1056.42,1188.44l-4.62-17.24c-0.66-2.47-4.49-1.44-3.83,1.03l4.62,17.24
						C1053.25,1191.94,1057.08,1190.91,1056.42,1188.44z"/>
				</g>
				<g>
					<path class="st0" d="M1162.67,1031.18l-70.88-18.99v-4.11l71.91,19.27C1166.16,1028.01,1165.13,1031.84,1162.67,1031.18z"/>
					<path class="st0" d="M1203.92,1038.14l-17.24-4.62c-2.47-0.66-3.5,3.17-1.03,3.83l17.24,4.62
						C1205.36,1042.63,1206.39,1038.8,1203.92,1038.14z"/>
				</g>
			</g>
			<g>
				<g>
					<path class="st0" d="M998.02,832.48v32.56c0,2.55,3.97,2.56,3.97,0v-32.56C1001.98,829.93,998.02,829.92,998.02,832.48z"/>
					<path class="st0" d="M998.02,783.33v12.56c0,2.55,3.97,2.56,3.97,0v-12.56C1001.98,780.77,998.02,780.77,998.02,783.33z"/>
				</g>
				<g>
					<path class="st0" d="M908.21,930.26v4.58l-15.43-8.91c-2.21-1.28-0.22-4.71,1.99-3.43L908.21,930.26z"/>
					<path class="st0" d="M866.45,910.73l10.88,6.28c2.21,1.28,4.2-2.16,1.98-3.44l-10.88-6.28
						C866.22,906.02,864.23,909.45,866.45,910.73z"/>
					<path class="st0" d="M823.88,886.15l10.88,6.28c2.21,1.28,4.2-2.16,1.98-3.44l-10.88-6.28
						C823.65,881.44,821.66,884.88,823.88,886.15z"/>
				</g>
				<g>
					<path class="st0" d="M908.21,1036.25v4.58l-13.44,7.76c-2.22,1.28-4.2-2.16-1.99-3.43L908.21,1036.25z"/>
					<path class="st0" d="M868.43,1063.8l10.88-6.28c2.21-1.28,0.23-4.71-1.98-3.44l-10.88,6.28
						C864.23,1061.64,866.21,1065.08,868.43,1063.8z"/>
					<path class="st0" d="M825.86,1088.38l10.88-6.28c2.21-1.28,0.23-4.71-1.98-3.44l-10.88,6.28
						C821.67,1086.22,823.65,1089.66,825.86,1088.38z"/>
				</g>
				<g>
					<path class="st0" d="M1001.98,1138.62v-12.56c0-2.55-3.97-2.56-3.97,0v12.56C998.02,1141.17,1001.98,1141.18,1001.98,1138.62z"
						/>
					<path class="st0" d="M1001.98,1187.77v-12.56c0-2.55-3.97-2.56-3.97,0v12.56C998.02,1190.32,1001.98,1190.33,1001.98,1187.77z"
						/>
				</g>
				<g>
					<path class="st0" d="M1105.24,1048.59l-13.45-7.76v-4.58l15.43,8.91C1109.44,1046.44,1107.45,1049.87,1105.24,1048.59z"/>
					<path class="st0" d="M1133.55,1060.37l-10.88-6.28c-2.21-1.28-4.2,2.16-1.98,3.44l10.88,6.28
						C1133.78,1065.08,1135.77,1061.64,1133.55,1060.37z"/>
					<path class="st0" d="M1176.12,1084.94l-10.88-6.28c-2.21-1.28-4.2,2.16-1.98,3.44l10.88,6.28
						C1176.35,1089.65,1178.34,1086.22,1176.12,1084.94z"/>
				</g>
				<g>
					<path class="st0" d="M1107.22,925.93l-15.43,8.91v-4.58l13.45-7.76C1107.45,921.22,1109.43,924.65,1107.22,925.93z"/>
					<path class="st0" d="M1131.57,907.3l-10.88,6.28c-2.21,1.28-0.23,4.71,1.98,3.44l10.88-6.28
						C1135.77,909.45,1133.79,906.02,1131.57,907.3z"/>
					<path class="st0" d="M1174.14,882.72l-10.88,6.28c-2.21,1.28-0.23,4.71,1.98,3.44l10.88-6.28
						C1178.33,884.88,1176.35,881.44,1174.14,882.72z"/>
				</g>
			</g>
			<g>
				<g>
					<path class="st0" d="M1103.7,987.53h-11.91v-3.97h11.91C1106.26,983.56,1106.25,987.53,1103.7,987.53z"/>
					<path class="st0" d="M1138.08,983.57h-21.15c-2.55,0-2.56,3.97,0,3.97h21.15C1140.63,987.53,1140.63,983.57,1138.08,983.57z"/>
					<path class="st0" d="M1209.47,983.57h-38.34c-2.55,0-2.56,3.97,0,3.97h38.34C1212.02,987.53,1212.03,983.57,1209.47,983.57z"/>
				</g>
				<g>
					<path class="st0" d="M1103.02,803.15l-19.17,33.21c-1.28,2.21,2.16,4.2,3.44,1.98l19.17-33.21
						C1107.73,802.92,1104.3,800.94,1103.02,803.15z"/>
				</g>
				<g>
					<path class="st0" d="M893.55,805.13l19.17,33.21c1.28,2.21,4.71,0.23,3.44-1.98l-19.17-33.21
						C895.71,800.94,892.27,802.92,893.55,805.13z"/>
				</g>
				<g>
					<path class="st0" d="M908.21,983.56v3.97H896.3c-2.55,0-2.55-3.97,0-3.97H908.21z"/>
					<path class="st0" d="M861.92,987.53h21.15c2.55,0,2.56-3.97,0-3.97h-21.15C859.37,983.57,859.37,987.53,861.92,987.53z"/>
					<path class="st0" d="M790.53,987.53h38.34c2.55,0,2.56-3.97,0-3.97h-38.34C787.98,983.57,787.97,987.53,790.53,987.53z"/>
				</g>
				<g>
					<path class="st0" d="M896.98,1167.95l19.17-33.21c1.28-2.21-2.16-4.2-3.44-1.98l-19.17,33.21
						C892.27,1168.17,895.7,1170.16,896.98,1167.95z"/>
				</g>
				<g>
					<path class="st0" d="M1106.45,1165.96l-19.17-33.21c-1.28-2.21-4.71-0.23-3.44,1.98l19.17,33.21
						C1104.29,1170.16,1107.73,1168.18,1106.45,1165.96z"/>
				</g>
			</g>
			<g>
				<g>
					<path class="st0" d="M908.21,890.94v5.62l-17.85-17.85c-1.81-1.81,1-4.61,2.81-2.81L908.21,890.94z"/>
					<path class="st0" d="M842.21,830.57l24.77,24.77c1.8,1.8,4.61-1,2.8-2.8l-24.77-24.77
						C843.21,825.96,840.41,828.76,842.21,830.57z"/>
				</g>
				<g>
					<path class="st0" d="M908.21,1008.09v4.11l-55.55,14.88c-2.47,0.66-3.49-3.17-1.03-3.83L908.21,1008.09z"/>
					<path class="st0" d="M786.89,1044.7l33.84-9.07c2.47-0.66,1.44-4.49-1.03-3.83l-33.84,9.07
						C783.4,1041.53,784.42,1045.37,786.89,1044.7z"/>
				</g>
				<g>
					<path class="st0" d="M968.03,1112.54l-5.73,21.37c-0.66,2.47-4.49,1.44-3.83-1.02l5.45-20.35H968.03z"/>
					<path class="st0" d="M944.67,1199.69l9.07-33.84c0.66-2.47-3.17-3.5-3.83-1.03l-9.07,33.84
						C940.18,1201.13,944.01,1202.16,944.67,1199.69z"/>
				</g>
				<g>
					<path class="st0" d="M1106.84,1095.18l-15.05-15.05v-5.6l17.85,17.85C1111.45,1094.19,1108.64,1096.99,1106.84,1095.18z"/>
					<path class="st0" d="M1157.79,1140.53l-24.77-24.77c-1.8-1.8-4.61,1-2.8,2.8l24.77,24.77
						C1156.79,1145.14,1159.59,1142.34,1157.79,1140.53z"/>
				</g>
				<g>
					<path class="st0" d="M1148.37,947.84L1091.79,963v-4.11l55.55-14.88C1149.81,943.35,1150.84,947.18,1148.37,947.84z"/>
					<path class="st0" d="M1213.11,926.39l-33.84,9.07c-2.47,0.66-1.44,4.49,1.03,3.83l33.84-9.07
						C1216.6,929.56,1215.58,925.73,1213.11,926.39z"/>
				</g>
				<g>
					<path class="st0" d="M1041.53,838.2l-8.08,30.16h-4.1l8.35-31.18C1038.37,834.71,1042.2,835.74,1041.53,838.2z"/>
					<path class="st0" d="M1055.33,771.41l-9.07,33.84c-0.66,2.47,3.17,3.5,3.83,1.03l9.07-33.84
						C1059.82,769.97,1055.99,768.94,1055.33,771.41z"/>
				</g>
			</g>
		</g>
		<g>
			<path class="st0" d="M1000.02,963.53c9.69,0,18.42-3.92,24.77-10.26c6.35-6.35,10.26-15.09,10.26-24.77
				c0-9.69-3.92-18.42-10.26-24.77c-6.35-6.35-15.09-10.26-24.77-10.26c-9.69,0-18.42,3.92-24.77,10.26
				c-6.35,6.35-10.26,15.09-10.26,24.77c0,9.69,3.92,18.42,10.26,24.77C981.6,959.61,990.33,963.53,1000.02,963.53z M1000.02,902.36
				c14.44,0,26.14,11.7,26.14,26.14c0,14.44-11.7,26.14-26.14,26.14c-14.44,0-26.14-11.7-26.14-26.14
				C973.88,914.06,985.58,902.36,1000.02,902.36z"/>
			
				<ellipse transform="matrix(0.7071 -0.7071 0.7071 0.7071 -363.6453 979.0703)" class="st0" cx="1000.02" cy="928.49" rx="9.73" ry="9.73"/>
			
				<ellipse transform="matrix(0.7071 -0.7071 0.7071 0.7071 -441.0718 1011.1415)" class="st0" cx="1000.02" cy="1037.99" rx="12.14" ry="12.14"/>
			<path class="st0" d="M1078.06,873.37H921.94c-4.82,0-8.73,3.91-8.73,8.73v216.71c0,4.82,3.91,8.73,8.73,8.73h156.12
				c4.82,0,8.73-3.91,8.73-8.73V882.1C1086.79,877.27,1082.88,873.37,1078.06,873.37z M970.3,898.77
				c7.6-7.6,18.13-12.31,29.72-12.31c11.6,0,22.13,4.71,29.72,12.31c7.6,7.6,12.31,18.13,12.31,29.72c0,11.6-4.71,22.13-12.31,29.72
				c-7.6,7.6-18.13,12.31-29.72,12.31c-11.6,0-22.13-4.71-29.72-12.31c-7.6-7.6-12.31-18.13-12.31-29.72
				C957.98,916.9,962.7,906.37,970.3,898.77z M1037.1,1075.07c-9.48,9.48-22.61,15.36-37.08,15.36c-14.47,0-27.61-5.88-37.08-15.36
				c-9.48-9.48-15.36-22.62-15.36-37.08c0-14.47,5.88-27.61,15.36-37.08c9.48-9.48,22.62-15.36,37.08-15.36
				c14.47,0,27.61,5.88,37.08,15.36c9.48,9.48,15.36,22.61,15.36,37.08C1052.47,1052.46,1046.59,1065.6,1037.1,1075.07z"/>
			<path class="st0" d="M1000.02,994.28c-12.08,0-22.98,4.89-30.91,12.8c-7.92,7.92-12.8,18.82-12.8,30.91
				c0,12.08,4.89,22.98,12.8,30.91c7.92,7.92,18.82,12.8,30.91,12.8c12.08,0,22.98-4.89,30.91-12.8c7.92-7.92,12.8-18.82,12.8-30.91
				c0-12.08-4.89-22.98-12.8-30.91C1023,999.17,1012.1,994.28,1000.02,994.28z M1000.02,1070.6c-18.01,0-32.61-14.6-32.61-32.61
				c0-18.01,14.6-32.61,32.61-32.61c18.01,0,32.61,14.6,32.61,32.61C1032.63,1056,1018.03,1070.6,1000.02,1070.6z"/>
		</g>
	</g>
</g>
</svg>
