<?xml version="1.0" encoding="utf-8"?>
<!-- Generator: Adobe Illustrator 23.0.3, SVG Export Plug-In . SVG Version: 6.00 Build 0)  -->
<svg version="1.1" id="Layer_1" xmlns="http://www.w3.org/2000/svg" xmlns:xlink="http://www.w3.org/1999/xlink" x="0px" y="0px"
	 viewBox="0 0 2000 2000" style="enable-background:new 0 0 2000 2000;" xml:space="preserve">
<style type="text/css">
	.st0{fill:#F3B773;}
	.st1{fill:#2C344F;}
	.st2{fill:#FFFFFF;}
	.st3{display:none;}
	.st4{display:inline;}
	.st5{display:none;fill:#FFFFFF;}
</style>
<g>
	<g>
		<path d="M726.45,969.24l-8.85,17.44l-1.52-0.87c0.04-0.36,0.05-0.65,0.05-0.87c0-1.23-1.05-2.55-3.15-3.96
			c-6.44-4.49-14-6.73-22.68-6.73c-3.84,0-7.22,0.47-10.15,1.41c-2.14,0.72-3.86,1.81-5.18,3.25c-1.32,1.45-1.98,3.02-1.98,4.72
			c0,2.78,1.68,4.68,5.05,5.69c1.74,0.51,5.46,1.05,11.18,1.63l8.52,0.87c5.07,0.54,9.16,1.28,12.29,2.22
			c3.13,0.94,5.91,2.26,8.33,3.96c2.46,1.77,4.4,4.1,5.83,6.99c1.43,2.89,2.14,5.98,2.14,9.27c0,5.21-1.68,9.83-5.05,13.88
			c-3.04,3.69-7.76,6.42-14.16,8.19c-4.78,1.34-9.9,2.01-15.36,2.01c-9.8,0-19.48-2.35-29.03-7.05c-2.03-0.94-3.24-1.41-3.64-1.41
			c-0.47,0-1.21,0.4-2.22,1.19l-1.57-0.81l8.03-18.18l1.57,0.76c0,0.33,0,0.56,0,0.71c0,1.63,0.78,3.13,2.33,4.5
			c2.35,2.1,5.99,3.91,10.91,5.43c4.92,1.52,9.59,2.28,14,2.28c4.81,0,8.92-0.81,12.32-2.44c1.88-0.9,3.38-2.1,4.5-3.6
			c1.12-1.5,1.68-3.06,1.68-4.69c0-2.46-1.32-4.21-3.96-5.25c-1.85-0.72-5.57-1.39-11.18-2l-8.36-0.87
			c-5.61-0.58-9.57-1.13-11.88-1.66c-2.32-0.53-4.63-1.37-6.95-2.53c-3.29-1.63-5.88-4.07-7.76-7.33c-1.7-2.93-2.55-6.3-2.55-10.1
			c0-6.26,2.15-11.44,6.46-15.53c5.64-5.39,14.11-8.09,25.4-8.09c4.74,0,9.15,0.48,13.24,1.44c4.09,0.96,9.19,2.73,15.3,5.31
			c2.1,0.84,3.38,1.25,3.85,1.25c0.76,0,1.65-0.42,2.66-1.25L726.45,969.24z"/>
		<path d="M846.3,968.66v41.52c0,7.85-1.45,13.73-4.34,17.64c-5.21,7.02-15.97,10.53-32.29,10.53c-11.79,0-20.82-1.9-27.08-5.7
			c-3.65-2.21-6.19-5.21-7.6-9.01c-1.38-3.76-2.06-8.25-2.06-13.46v-41.52c0-1.12-0.25-1.97-0.76-2.55
			c-0.51-0.58-1.41-1.05-2.71-1.41v-1.74h23.12v1.74c-1.28,0.33-2.18,0.79-2.7,1.38c-0.52,0.6-0.77,1.46-0.77,2.58v36.96
			c0,4.27,0.23,7.43,0.71,9.47c0.47,2.04,1.36,3.75,2.66,5.13c3.47,3.69,9.41,5.54,17.8,5.54c8.43,0,14.38-1.85,17.85-5.54
			c1.27-1.37,2.13-3.08,2.61-5.13c0.47-2.04,0.71-5.2,0.71-9.47v-36.96c0-1.12-0.25-1.97-0.76-2.55c-0.51-0.58-1.41-1.05-2.71-1.41
			v-1.74h21.82v1.74c-1.3,0.36-2.21,0.83-2.71,1.41C846.55,966.69,846.3,967.54,846.3,968.66z"/>
		<path d="M914.59,1006.97v24.42c0,1.09,0.26,1.93,0.79,2.52c0.52,0.6,1.42,1.06,2.69,1.38v1.74h-23.12v-1.74
			c1.3-0.36,2.21-0.83,2.71-1.41c0.51-0.58,0.76-1.41,0.76-2.5v-62.73c0-1.12-0.25-1.97-0.76-2.55c-0.51-0.58-1.41-1.05-2.71-1.41
			v-1.74h46.24c5.39,0,9.67,0.36,12.83,1.09c3.17,0.72,5.96,1.97,8.38,3.74c2.5,1.85,4.45,4.27,5.86,7.27
			c1.41,3.11,2.12,6.4,2.12,9.88c0,4.99-1.34,9.37-4.02,13.13c-2.32,3.22-5.38,5.51-9.2,6.87c-3.82,1.36-9.14,2.03-15.98,2.03
			H914.59z M914.59,994.76h24.69c4.92,0,8.38-0.52,10.37-1.57c1.27-0.69,2.29-1.78,3.07-3.28c0.78-1.5,1.17-3.16,1.17-4.97
			c0-1.77-0.39-3.41-1.17-4.91c-0.78-1.5-1.8-2.6-3.07-3.28c-1.95-1.05-5.41-1.57-10.37-1.57h-24.69V994.76z"/>
		<path d="M1032.97,1004.53v20.3h47.65c1.09,0,1.92-0.25,2.5-0.76c0.58-0.51,1.05-1.41,1.41-2.71h1.74v19.16h-1.74
			c-0.36-1.3-0.83-2.21-1.41-2.71c-0.58-0.51-1.41-0.76-2.5-0.76h-67.29v-1.74c1.3-0.36,2.21-0.83,2.71-1.41
			c0.51-0.58,0.76-1.43,0.76-2.55v-62.68c0-1.12-0.25-1.97-0.76-2.55c-0.51-0.58-1.41-1.05-2.71-1.41v-1.74h65.99
			c1.09,0,1.92-0.26,2.5-0.77c0.58-0.52,1.05-1.42,1.41-2.7h1.74v19.16h-1.74c-0.36-1.29-0.83-2.19-1.41-2.7
			c-0.58-0.51-1.41-0.77-2.5-0.77h-46.35v17.58h30.06c1.09,0,1.92-0.25,2.5-0.76c0.58-0.51,1.05-1.41,1.41-2.71h1.74V1008h-1.74
			c-0.36-1.27-0.83-2.16-1.41-2.69c-0.58-0.52-1.41-0.79-2.5-0.79H1032.97z"/>
		<path d="M1150.76,1006.81v24.58c0,1.09,0.26,1.93,0.79,2.52c0.52,0.6,1.42,1.06,2.69,1.38v1.74h-23.12v-1.74
			c1.3-0.36,2.21-0.83,2.71-1.41c0.51-0.58,0.76-1.41,0.76-2.5v-62.73c0-1.12-0.25-1.97-0.76-2.55c-0.51-0.58-1.41-1.05-2.71-1.41
			v-1.74h46.35c5.64,0,10.12,0.33,13.43,0.98c3.31,0.65,6.19,1.79,8.66,3.42c2.86,1.88,4.99,4.43,6.4,7.65
			c1.34,3.11,2.01,6.44,2.01,9.99c0,12.08-6.71,19.16-20.13,21.22l14.38,20.46c2.53,3.58,4.39,5.89,5.56,6.92
			c1.18,1.03,2.61,1.6,4.31,1.71v1.74h-26.76v-1.74c1.84-0.29,2.76-0.94,2.76-1.95c0-0.65-0.85-2.23-2.55-4.72l-15-21.82H1150.76z
			 M1150.76,994.6h24.96c3.69,0,6.29-0.11,7.81-0.33c1.52-0.22,2.91-0.67,4.18-1.36c2.75-1.48,4.12-4.16,4.12-8.03
			c0-3.87-1.38-6.55-4.12-8.03c-1.3-0.72-2.69-1.18-4.15-1.38c-1.47-0.2-4.08-0.3-7.84-0.3h-24.96V994.6z"/>
		<path d="M1335.1,1024.83h45.53c1.12,0,1.97-0.25,2.55-0.76c0.58-0.51,1.05-1.41,1.41-2.71h1.74v19.16h-1.74
			c-0.36-1.3-0.83-2.21-1.41-2.71c-0.58-0.51-1.43-0.76-2.55-0.76h-65.18v-1.74c1.3-0.36,2.21-0.83,2.71-1.41
			c0.51-0.58,0.76-1.43,0.76-2.55v-62.68c0-1.12-0.25-1.97-0.76-2.55c-0.51-0.58-1.41-1.05-2.71-1.41v-1.74h23.12v1.74
			c-1.3,0.33-2.21,0.79-2.71,1.38c-0.51,0.6-0.76,1.46-0.76,2.58V1024.83z"/>
		<path d="M1466.96,961.66c12.92,0,23.17,3.49,30.74,10.47c8,7.31,12,16.75,12,28.33c0,7.09-1.92,13.71-5.76,19.86
			c-7.49,12.01-19.79,18.02-36.87,18.02c-12.82,0-23.01-3.49-30.57-10.47c-4.05-3.73-7.13-8.19-9.23-13.4
			c-1.85-4.59-2.77-9.42-2.77-14.49c0-7.42,1.9-14.2,5.7-20.35C1437.48,967.86,1449.73,961.88,1466.96,961.66z M1467.02,974.25
			c-7.06,0-12.95,2.1-17.66,6.29c-5.58,4.95-8.37,11.44-8.37,19.46c0,8.02,2.79,14.51,8.37,19.46c4.71,4.19,10.63,6.29,17.76,6.29
			c7.13,0,13.04-2.1,17.71-6.29c2.79-2.49,4.93-5.55,6.41-9.16c1.3-3.22,1.96-6.54,1.96-9.97c0-8.38-2.79-14.98-8.37-19.79
			C1480.09,976.42,1474.15,974.32,1467.02,974.25z"/>
		<path d="M1630.04,968.66v41.52c0,7.85-1.45,13.73-4.34,17.64c-5.21,7.02-15.97,10.53-32.29,10.53c-11.79,0-20.82-1.9-27.08-5.7
			c-3.65-2.21-6.19-5.21-7.6-9.01c-1.38-3.76-2.06-8.25-2.06-13.46v-41.52c0-1.12-0.25-1.97-0.76-2.55
			c-0.51-0.58-1.41-1.05-2.71-1.41v-1.74h23.12v1.74c-1.28,0.33-2.18,0.79-2.7,1.38c-0.52,0.6-0.77,1.46-0.77,2.58v36.96
			c0,4.27,0.23,7.43,0.71,9.47c0.47,2.04,1.36,3.75,2.66,5.13c3.47,3.69,9.41,5.54,17.8,5.54c8.43,0,14.38-1.85,17.85-5.54
			c1.27-1.37,2.13-3.08,2.61-5.13c0.47-2.04,0.71-5.2,0.71-9.47v-36.96c0-1.12-0.25-1.97-0.76-2.55c-0.51-0.58-1.41-1.05-2.71-1.41
			v-1.74h21.82v1.74c-1.3,0.36-2.21,0.83-2.71,1.41C1630.29,966.69,1630.04,967.54,1630.04,968.66z"/>
		<path d="M1682.16,1031.34v-62.68c0-1.12-0.25-1.97-0.76-2.55c-0.51-0.58-1.41-1.05-2.71-1.41v-1.74h41.33
			c9.05,0,16,1.03,20.85,3.09c6.95,3,12.09,7.96,15.42,14.87c2.64,5.43,3.96,11.78,3.96,19.05c0,12.77-3.93,22.5-11.78,29.2
			c-3.29,2.82-7.15,4.84-11.57,6.05c-4.42,1.21-10.05,1.82-16.89,1.82h-41.33v-1.74c1.3-0.36,2.21-0.83,2.71-1.41
			C1681.9,1033.31,1682.16,1032.46,1682.16,1031.34z M1698.33,1024.83h20.32c6.48,0,11.35-0.89,14.61-2.66
			c6.99-3.8,10.49-11.2,10.49-22.2c0-7.96-1.88-14.06-5.65-18.29c-2.1-2.35-4.64-4.02-7.61-5.02c-2.97-0.99-6.92-1.49-11.84-1.49
			h-20.32V1024.83z"/>
	</g>
	<g>
		<g>
			<g>
				<g>
					<path d="M546.61,892.32l-26.52,26.52v-5.11l23.96-23.96C545.69,888.11,548.25,890.68,546.61,892.32z"/>
					<path d="M570.91,862.9l-11.51,11.51c-1.65,1.65,0.91,4.21,2.56,2.56l11.51-11.51C575.11,863.81,572.56,861.25,570.91,862.9z"/>
				</g>
				<g>
					<path d="M409.59,893.11h-3.74l-11.12-41.48c-0.6-2.25,2.89-3.18,3.49-0.94L409.59,893.11z"/>
					<path d="M384.91,814.93l4.21,15.73c0.6,2.25,4.1,1.32,3.49-0.94l-4.21-15.73C387.8,811.75,384.3,812.68,384.91,814.93z"/>
				</g>
				<g>
					<path d="M352.64,975.69v3.76l-65.58-17.58c-2.25-0.61-1.31-4.1,0.93-3.5L352.64,975.69z"/>
					<path d="M250.36,952.03l15.73,4.21c2.25,0.6,3.19-2.89,0.94-3.49l-15.73-4.21C249.05,947.94,248.11,951.43,250.36,952.03z"/>
				</g>
				<g>
					<path d="M352.64,1081.17v5.12l-23.95,23.95c-1.65,1.65-4.2-0.91-2.56-2.55L352.64,1081.17z"/>
					<path d="M301.82,1137.1l11.51-11.51c1.65-1.65-0.91-4.21-2.56-2.56l-11.51,11.51C297.62,1136.19,300.18,1138.75,301.82,1137.1z
						"/>
				</g>
				<g>
					<path d="M474.5,1149.31l-8.97-33.48h3.74l8.72,32.54C478.6,1150.63,475.1,1151.56,474.5,1149.31z"/>
					<path d="M487.83,1185.07l-4.21-15.73c-0.6-2.25-4.1-1.32-3.49,0.94l4.21,15.73C484.94,1188.25,488.43,1187.32,487.83,1185.07z"
						/>
				</g>
				<g>
					<path d="M584.74,1041.63l-64.65-17.32v-3.75l65.59,17.58C587.93,1038.73,586.99,1042.23,584.74,1041.63z"/>
					<path d="M622.37,1047.97l-15.73-4.21c-2.25-0.6-3.19,2.89-0.94,3.49l15.73,4.21C623.68,1052.06,624.62,1048.57,622.37,1047.97z
						"/>
				</g>
			</g>
			<g>
				<g>
					<path d="M434.56,860.38v29.7c0,2.33,3.62,2.33,3.62,0v-29.7C438.18,858.05,434.56,858.05,434.56,860.38z"/>
					<path d="M434.56,815.54V827c0,2.33,3.62,2.33,3.62,0v-11.46C438.18,813.22,434.56,813.21,434.56,815.54z"/>
				</g>
				<g>
					<path d="M352.64,949.57v4.18l-14.07-8.13c-2.02-1.17-0.2-4.3,1.82-3.13L352.64,949.57z"/>
					<path d="M314.55,931.76l9.92,5.73c2.02,1.16,3.83-1.97,1.81-3.13l-9.92-5.73C314.34,927.46,312.53,930.59,314.55,931.76z"/>
					<path d="M275.72,909.34l9.92,5.73c2.02,1.16,3.83-1.97,1.81-3.13l-9.92-5.73C275.51,905.04,273.7,908.17,275.72,909.34z"/>
				</g>
				<g>
					<path d="M352.64,1046.25v4.18l-12.26,7.08c-2.02,1.17-3.83-1.97-1.82-3.13L352.64,1046.25z"/>
					<path d="M316.36,1071.38l9.92-5.73c2.02-1.16,0.21-4.3-1.81-3.13l-9.92,5.73C312.53,1069.41,314.34,1072.54,316.36,1071.38z"/>
					<path d="M277.53,1093.79l9.92-5.73c2.02-1.16,0.21-4.3-1.81-3.13l-9.92,5.73C273.7,1091.82,275.51,1094.96,277.53,1093.79z"/>
				</g>
				<g>
					<path d="M438.18,1139.62v-11.46c0-2.33-3.62-2.33-3.62,0v11.46C434.56,1141.95,438.18,1141.95,438.18,1139.62z"/>
					<path d="M438.18,1184.46V1173c0-2.33-3.62-2.33-3.62,0v11.46C434.56,1186.78,438.18,1186.79,438.18,1184.46z"/>
				</g>
				<g>
					<path d="M532.36,1057.51l-12.27-7.08v-4.18l14.07,8.13C536.19,1055.55,534.38,1058.67,532.36,1057.51z"/>
					<path d="M558.19,1068.24l-9.92-5.73c-2.02-1.16-3.83,1.97-1.81,3.13l9.92,5.73C558.39,1072.54,560.21,1069.41,558.19,1068.24z"
						/>
					<path d="M597.01,1090.66l-9.92-5.73c-2.02-1.16-3.83,1.97-1.81,3.13l9.92,5.73C597.22,1094.96,599.03,1091.83,597.01,1090.66z"
						/>
				</g>
				<g>
					<path d="M534.17,945.62l-14.07,8.13v-4.18l12.27-7.08C534.38,941.33,536.18,944.46,534.17,945.62z"/>
					<path d="M556.38,928.62l-9.92,5.73c-2.02,1.16-0.21,4.3,1.81,3.13l9.92-5.73C560.2,930.59,558.4,927.46,556.38,928.62z"/>
					<path d="M595.21,906.21l-9.92,5.73c-2.02,1.16-0.21,4.3,1.81,3.13l9.92-5.73C599.03,908.17,597.23,905.04,595.21,906.21z"/>
				</g>
			</g>
			<g>
				<g>
					<path d="M530.95,1001.81h-10.86v-3.62h10.86C533.29,998.19,533.28,1001.81,530.95,1001.81z"/>
					<path d="M562.31,998.19h-19.3c-2.33,0-2.33,3.62,0,3.62h19.3C564.64,1001.81,564.64,998.19,562.31,998.19z"/>
					<path d="M627.43,998.19h-34.97c-2.33,0-2.33,3.62,0,3.62h34.97C629.76,1001.81,629.77,998.19,627.43,998.19z"/>
				</g>
				<g>
					<path d="M530.33,833.63l-17.49,30.29c-1.16,2.02,1.97,3.83,3.13,1.81l17.49-30.29C534.63,833.42,531.5,831.61,530.33,833.63z"
						/>
				</g>
				<g>
					<path d="M339.27,835.44l17.49,30.29c1.16,2.02,4.3,0.21,3.13-1.81l-17.49-30.29C341.24,831.61,338.1,833.42,339.27,835.44z"/>
				</g>
				<g>
					<path d="M352.64,998.19v3.62h-10.86c-2.33,0-2.33-3.62,0-3.62H352.64z"/>
					<path d="M310.42,1001.81h19.3c2.33,0,2.33-3.62,0-3.62h-19.3C308.09,998.19,308.09,1001.81,310.42,1001.81z"/>
					<path d="M245.3,1001.81h34.97c2.33,0,2.33-3.62,0-3.62H245.3C242.97,998.19,242.97,1001.81,245.3,1001.81z"/>
				</g>
				<g>
					<path d="M342.4,1166.37l17.49-30.29c1.16-2.02-1.97-3.83-3.13-1.81l-17.49,30.29C338.1,1166.58,341.23,1168.39,342.4,1166.37z"
						/>
				</g>
				<g>
					<path d="M533.47,1164.56l-17.49-30.29c-1.16-2.02-4.3-0.21-3.13,1.81l17.49,30.29C531.5,1168.39,534.63,1166.58,533.47,1164.56
						z"/>
				</g>
			</g>
			<g>
				<g>
					<path d="M352.64,913.71v5.13l-16.28-16.28c-1.65-1.65,0.91-4.2,2.56-2.56L352.64,913.71z"/>
					<path d="M292.44,858.63l22.6,22.6c1.65,1.65,4.21-0.91,2.56-2.56l-22.6-22.6C293.36,854.43,290.79,856.99,292.44,858.63z"/>
				</g>
				<g>
					<path d="M352.64,1020.57v3.75l-50.67,13.57c-2.25,0.6-3.18-2.89-0.94-3.49L352.64,1020.57z"/>
					<path d="M241.98,1053.96l30.87-8.27c2.25-0.6,1.32-4.1-0.94-3.49l-30.87,8.27C238.79,1051.07,239.73,1054.56,241.98,1053.96z"
						/>
				</g>
				<g>
					<path d="M407.2,1115.84l-5.23,19.49c-0.6,2.25-4.1,1.31-3.49-0.93l4.97-18.56H407.2z"/>
					<path d="M385.9,1195.32l8.27-30.87c0.6-2.25-2.89-3.19-3.49-0.94l-8.27,30.87C381.81,1196.64,385.3,1197.58,385.9,1195.32z"/>
				</g>
				<g>
					<path d="M533.82,1100l-13.73-13.73v-5.11l16.28,16.28C538.02,1099.1,535.46,1101.65,533.82,1100z"/>
					<path d="M580.29,1141.37l-22.6-22.6c-1.65-1.65-4.21,0.91-2.56,2.56l22.6,22.6C579.38,1145.57,581.94,1143.01,580.29,1141.37z"
						/>
				</g>
				<g>
					<path d="M571.7,965.61l-51.61,13.83v-3.75l50.67-13.57C573.01,961.51,573.95,965.01,571.7,965.61z"/>
					<path d="M630.76,946.04l-30.87,8.27c-2.25,0.6-1.32,4.1,0.94,3.49l30.87-8.27C633.94,948.93,633.01,945.44,630.76,946.04z"/>
				</g>
				<g>
					<path d="M474.25,865.6l-7.37,27.51h-3.74l7.62-28.44C471.36,862.42,474.86,863.36,474.25,865.6z"/>
					<path d="M486.83,804.68l-8.27,30.87c-0.6,2.25,2.89,3.19,3.49,0.94l8.27-30.87C490.93,803.36,487.43,802.42,486.83,804.68z"/>
				</g>
			</g>
		</g>
		<g>
			<path d="M436.39,979.91c8.83,0,16.8-3.57,22.6-9.36c5.79-5.79,9.36-13.76,9.36-22.6c0-8.83-3.57-16.8-9.36-22.6
				c-5.79-5.79-13.76-9.36-22.6-9.36c-8.83,0-16.8,3.57-22.6,9.36c-5.79,5.79-9.36,13.76-9.36,22.6c0,8.83,3.57,16.8,9.36,22.6
				C419.58,976.34,427.55,979.91,436.39,979.91z M436.39,924.12c13.17,0,23.84,10.67,23.84,23.84c0,13.17-10.67,23.84-23.84,23.84
				c-13.17,0-23.84-10.67-23.84-23.84C412.54,934.79,423.22,924.12,436.39,924.12z"/>
			<ellipse transform="matrix(0.7071 -0.7071 0.7071 0.7071 -542.4934 586.2215)" cx="436.39" cy="947.96" rx="8.88" ry="8.88"/>
			<ellipse transform="matrix(0.7071 -0.7071 0.7071 0.7071 -613.1171 615.4749)" cx="436.39" cy="1047.84" rx="11.07" ry="11.07"/>
			<path d="M507.57,897.67h-142.4c-4.4,0-7.97,3.57-7.97,7.97v197.67c0,4.4,3.57,7.97,7.97,7.97h142.4c4.4,0,7.97-3.57,7.97-7.97
				V905.64C515.53,901.24,511.97,897.67,507.57,897.67z M409.27,920.85c6.93-6.93,16.53-11.23,27.11-11.23
				c10.58,0,20.18,4.3,27.11,11.23c6.93,6.93,11.23,16.53,11.23,27.11c0,10.58-4.3,20.18-11.23,27.11
				c-6.93,6.93-16.53,11.23-27.11,11.23c-10.58,0-20.18-4.3-27.11-11.23c-6.93-6.93-11.23-16.53-11.23-27.11
				C398.04,937.38,402.34,927.78,409.27,920.85z M470.21,1081.66c-8.64,8.65-20.63,14.01-33.82,14.01
				c-13.2,0-25.18-5.36-33.82-14.01c-8.65-8.64-14.01-20.63-14.01-33.82c0-13.2,5.36-25.18,14.01-33.82
				c8.64-8.65,20.63-14.01,33.82-14.01c13.2,0,25.18,5.36,33.82,14.01c8.65,8.64,14.01,20.63,14.01,33.82
				C484.22,1061.03,478.86,1073.02,470.21,1081.66z"/>
			<path d="M436.39,1007.97c-11.02,0-20.96,4.46-28.19,11.68c-7.22,7.23-11.68,17.17-11.68,28.19c0,11.02,4.46,20.96,11.68,28.19
				c7.23,7.22,17.17,11.68,28.19,11.68c11.02,0,20.96-4.46,28.19-11.68c7.22-7.23,11.68-17.17,11.68-28.19
				c0-11.02-4.46-20.96-11.68-28.19C457.35,1012.42,447.41,1007.97,436.39,1007.97z M436.39,1077.58
				c-16.43,0-29.75-13.32-29.75-29.75c0-16.43,13.32-29.75,29.75-29.75s29.75,13.32,29.75,29.75
				C466.13,1064.26,452.81,1077.58,436.39,1077.58z"/>
		</g>
	</g>
</g>
</svg>
